#!OML:ASF H:\Dans Jumps\Project 1\Capture day 1\Session 1\subject.ASF
:FULLY-SPECIFIED
:DEGREES
301
root 0.324637 16.8 -2.96447 8.54409 -3.81972 -0.980124
lowerback 6.88253 -1.52585 -1.28367
upperback 5.61435 -2.11917 2.47415
thorax 2.08876 -1.15237 3.37771
lowerneck -12.4223 1.83106 0.174791
upperneck 33.4541 2.96083 -1.3011
head 13.334 1.11025 -0.112336
rclavicle 3.18055e-015 -3.61788e-014
rhumerus -20.6591 -18.3809 -79.8355
rradius 19.6182
rwrist 40.3554
rhand -25.0215 -25.1821
rfingers 7.12502
rthumb 1.49078 -55.1566
lclavicle 3.18055e-015 -3.61788e-014
lhumerus -4.16976 -2.80719 91.3143
lradius 18.8483
lwrist 10.2175
lhand -29.762 -8.89714
lfingers 7.12502
lthumb -3.08764 21.0603
rfemur -32.9904 -2.23872 20.4387
rtibia 48.2704
rfoot -20.6952 -6.8801
rtoes 4.54433
lfemur -32.8812 8.19179 -17.7362
ltibia 45.003
lfoot -18.9193 1.72492
ltoes -3.38115
302
root 0.322197 16.7957 -2.95404 8.53419 -3.67851 -1.00044
lowerback 6.84887 -1.51707 -1.28972
upperback 5.61456 -2.10769 2.48374
thorax 2.10746 -1.14711 3.38948
lowerneck -12.4326 1.78868 0.15534
upperneck 33.4624 2.89598 -1.27097
head 13.3382 1.08395 -0.106436
rclavicle -1.83876e-014 -2.38542e-015
rhumerus -20.448 -18.2019 -79.9639
rradius 19.7264
rwrist 40.0971
rhand -25.0443 -25.132
rfingers 7.12502
rthumb 1.46874 -55.1067
lclavicle -1.83876e-014 -2.38542e-015
lhumerus -4.38164 -2.87517 91.3802
lradius 18.6887
lwrist 9.97159
lhand -29.7528 -8.83916
lfingers 7.12502
lthumb -3.07869 21.1184
rfemur -32.9473 -2.32698 20.4765
rtibia 48.3265
rfoot -20.7453 -6.98836
rtoes 4.49308
lfemur -32.8945 8.13216 -17.7067
ltibia 45.0833
lfoot -18.9837 1.72454
ltoes -3.46058
303
root 0.320096 16.7917 -2.94361 8.51756 -3.54831 -1.01663
lowerback 6.82028 -1.504 -1.29645
upperback 5.61685 -2.09056 2.49112
thorax 2.12506 -1.13903 3.39923
lowerneck -12.4345 1.74474 0.132947
upperneck 33.4597 2.82995 -1.24246
head 13.3357 1.05677 -0.100921
rclavicle -1.2921e-015 1.39149e-014
rhumerus -20.2403 -18.0401 -80.0791
rradius 19.8264
rwrist 39.8893
rhand -25.0773 -25.0698
rfingers 7.12502
rthumb 1.43691 -55.0447
lclavicle -1.2921e-015 1.39149e-014
lhumerus -4.59209 -2.91014 91.4428
lradius 18.5146
lwrist 9.66669
lhand -29.7305 -8.77088
lfingers 7.12502
lthumb -3.05716 21.1869
rfemur -32.8962 -2.41285 20.5087
rtibia 48.3804
rfoot -20.7928 -7.10085
rtoes 4.41549
lfemur -32.8958 8.07406 -17.6816
ltibia 45.1589
lfoot -19.0482 1.73154
ltoes -3.54113
304
root 0.318399 16.788 -2.93323 8.49529 -3.4316 -1.03155
lowerback 6.79715 -1.48665 -1.30085
upperback 5.6212 -2.06766 2.49603
thorax 2.14117 -1.12795 3.405
lowerneck -12.4291 1.70014 0.10924
upperneck 33.4454 2.76346 -1.21515
head 13.3267 1.02926 -0.0957959
rclavicle -2.70347e-014 7.95139e-015
rhumerus -20.0401 -17.8632 -80.1902
rradius 19.9289
rwrist 39.6975
rhand -25.1204 -25.0009
rfingers 7.12502
rthumb 1.39529 -54.9761
lclavicle -2.70347e-014 7.95139e-015
lhumerus -4.79767 -2.91657 91.4984
lradius 18.3203
lwrist 9.30056
lhand -29.6989 -8.70295
lfingers 7.12502
lthumb -3.02671 21.2553
rfemur -32.8383 -2.49281 20.5374
rtibia 48.4307
rfoot -20.8388 -7.21056
rtoes 4.33799
lfemur -32.8853 8.01846 -17.6576
ltibia 45.2284
lfoot -19.1113 1.74358
ltoes -3.61418
305
root 0.317092 16.7847 -2.92305 8.47117 -3.32463 -1.0447
lowerback 6.77685 -1.4663 -1.30247
upperback 5.62648 -2.04065 2.4982
thorax 2.15617 -1.11467 3.40628
lowerneck -12.4179 1.65657 0.0886996
upperneck 33.4199 2.69857 -1.19128
head 13.3118 1.00255 -0.0923997
rclavicle -6.02318e-014 1.70955e-014
rhumerus -19.8545 -17.6331 -80.3064
rradius 20.055
rwrist 39.4711
rhand -25.1613 -24.9384
rfingers 7.12502
rthumb 1.35583 -54.9138
lclavicle -6.02318e-014 1.70955e-014
lhumerus -5.00241 -2.89657 91.5466
lradius 18.1173
lwrist 8.88144
lhand -29.6581 -8.62311
lfingers 7.12502
lthumb -2.9873 21.3357
rfemur -32.7779 -2.56728 20.5619
rtibia 48.4773
rfoot -20.8845 -7.3103
rtoes 4.27467
lfemur -32.8679 7.96254 -17.6356
ltibia 45.2913
lfoot -19.1718 1.75831
ltoes -3.67253
306
root 0.316144 16.7817 -2.91309 8.44898 -3.2303 -1.05838
lowerback 6.75418 -1.44293 -1.30089
upperback 5.63301 -2.00948 2.49874
thorax 2.17328 -1.09923 3.4038
lowerneck -12.405 1.614 0.0687269
upperneck 33.3862 2.63519 -1.16845
head 13.293 0.976528 -0.0892999
rclavicle -9.34288e-015 7.95139e-016
rhumerus -19.6696 -17.4129 -80.4176
rradius 20.175
rwrist 39.2672
rhand -25.2048 -24.8784
rfingers 7.12502
rthumb 1.31376 -54.8541
lclavicle -9.34288e-015 7.95139e-016
lhumerus -5.20504 -2.8541 91.5872
lradius 17.9062
lwrist 8.4207
lhand -29.6153 -8.53338
lfingers 7.12502
lthumb -2.94593 21.426
rfemur -32.721 -2.63119 20.5842
rtibia 48.5205
rfoot -20.9266 -7.40212
rtoes 4.22591
lfemur -32.8479 7.91 -17.6134
ltibia 45.348
lfoot -19.2304 1.77146
ltoes -3.70956
307
root 0.315531 16.779 -2.90346 8.43038 -3.14301 -1.07019
lowerback 6.72905 -1.41883 -1.29838
upperback 5.63954 -1.97731 2.49842
thorax 2.19162 -1.08325 3.39982
lowerneck -12.3932 1.57369 0.0482251
upperneck 33.3485 2.57567 -1.14707
head 13.2728 0.951943 -0.0860895
rclavicle -3.61788e-014 1.31198e-014
rhumerus -19.4884 -17.1845 -80.5273
rradius 20.2973
rwrist 39.052
rhand -25.2267 -24.8482
rfingers 7.12502
rthumb 1.29266 -54.824
lclavicle -3.61788e-014 1.31198e-014
lhumerus -5.40506 -2.77428 91.6219
lradius 17.6856
lwrist 7.9175
lhand -29.5775 -8.46631
lfingers 7.12502
lthumb -2.90941 21.4936
rfemur -32.6693 -2.68821 20.6022
rtibia 48.5606
rfoot -20.9669 -7.48178
rtoes 4.19493
lfemur -32.8279 7.85904 -17.5943
ltibia 45.3981
lfoot -19.2865 1.78238
ltoes -3.73975
